<?xml version="1.0" encoding="UTF-8"?>
<svg xmlns="http://www.w3.org/2000/svg" xmlns:xlink="http://www.w3.org/1999/xlink" width="51pt" height="45pt" viewBox="0 0 51 45" version="1.1">
<defs>
<clipPath id="clip1">
  <path d="M 1.097656 1.796875 L 49.664063 1.796875 L 49.664063 42.148438 L 1.097656 42.148438 Z M 1.097656 1.796875 "/>
</clipPath>
</defs>
<g id="surface1">
<path style="fill:none;stroke-width:0.3985;stroke-linecap:butt;stroke-linejoin:miter;stroke:rgb(0%,0%,0%);stroke-opacity:1;stroke-miterlimit:10;" d="M 0.00165625 0.00034696 L 46.575875 0.00034696 " transform="matrix(1,0,0,-1.00003,1.096,42.148784)"/>
<path style=" stroke:none;fill-rule:nonzero;fill:rgb(0%,0%,0%);fill-opacity:1;" d="M 49.664063 42.148438 L 46.476563 40.554688 L 47.671875 42.148438 L 46.476563 43.742188 "/>
<path style="fill:none;stroke-width:0.3985;stroke-linecap:butt;stroke-linejoin:miter;stroke:rgb(0%,0%,0%);stroke-opacity:1;stroke-miterlimit:10;" d="M 24.282906 0.00034696 L 24.282906 38.354665 " transform="matrix(1,0,0,-1.00003,1.096,42.148784)"/>
<path style=" stroke:none;fill-rule:nonzero;fill:rgb(0%,0%,0%);fill-opacity:1;" d="M 25.378906 1.796875 L 23.785156 4.988281 L 25.378906 3.792969 L 26.972656 4.988281 "/>
<g clip-path="url(#clip1)" clip-rule="nonzero">
<path style="fill:none;stroke-width:0.3985;stroke-linecap:butt;stroke-linejoin:miter;stroke:rgb(0%,0%,0%);stroke-opacity:1;stroke-miterlimit:10;" d="M 0.00165625 40.350699 L 2.025094 33.90558 L 4.048531 28.019038 L 6.071969 22.694979 L 8.095406 17.933403 L 10.118844 13.730404 L 12.142281 10.085982 L 14.165719 7.004043 L 16.189156 4.484587 L 18.212594 2.523709 L 20.236031 1.121407 L 22.259469 0.281589 L 24.282906 0.00034696 L 26.306344 0.281589 L 28.329781 1.121407 L 30.353219 2.519803 L 32.376656 4.484587 L 34.400094 7.004043 L 36.423531 10.085982 L 38.450875 13.730404 L 40.474312 17.933403 L 42.49775 22.694979 L 44.521187 28.019038 L 46.544625 33.90558 L 48.568062 40.346793 " transform="matrix(1,0,0,-1.00003,1.096,42.148784)"/>
</g>
</g>
</svg>
