<?xml version="1.0" encoding="UTF-8"?>
<svg xmlns="http://www.w3.org/2000/svg" xmlns:xlink="http://www.w3.org/1999/xlink" width="231pt" height="230pt" viewBox="0 0 231 230" version="1.1">
<g id="surface1">
<path style="fill:none;stroke-width:0.3985;stroke-linecap:butt;stroke-linejoin:miter;stroke:rgb(0%,0%,0%);stroke-opacity:1;stroke-miterlimit:10;" d="M 113.385704 -0.00151621 C 113.385704 62.622231 62.621602 113.386841 -0.00151941 113.386841 C -62.624641 113.386841 -113.388743 62.622231 -113.388743 -0.00151621 C -113.388743 -62.621358 -62.624641 -113.385967 -0.00151941 -113.385967 C 62.621602 -113.385967 113.385704 -62.621358 113.385704 -0.00151621 Z M 113.385704 -0.00151621 " transform="matrix(1.00003,0,0,-1.00002,115.485894,115.185984)"/>
<path style=" stroke:none;fill-rule:nonzero;fill:rgb(0%,0%,0%);fill-opacity:1;" d="M 118.320313 115.1875 C 118.320313 113.621094 117.050781 112.351563 115.484375 112.351563 C 113.921875 112.351563 112.652344 113.621094 112.652344 115.1875 C 112.652344 116.75 113.921875 118.019531 115.484375 118.019531 C 117.050781 118.019531 118.320313 116.75 118.320313 115.1875 Z M 118.320313 115.1875 "/>
<path style=" stroke:none;fill-rule:nonzero;fill:rgb(0%,0%,0%);fill-opacity:1;" d="M 197.976563 35.53125 C 197.976563 33.964844 196.707031 32.695313 195.144531 32.695313 C 193.578125 32.695313 192.308594 33.964844 192.308594 35.53125 C 192.308594 37.09375 193.578125 38.363281 195.144531 38.363281 C 196.707031 38.363281 197.976563 37.09375 197.976563 35.53125 Z M 197.976563 35.53125 "/>
<path style="fill:none;stroke-width:0.3985;stroke-linecap:butt;stroke-linejoin:miter;stroke:rgb(0%,0%,0%);stroke-opacity:1;stroke-miterlimit:10;" d="M -0.00151941 -0.00151621 L 79.656247 79.653141 L 79.656247 -0.00151621 L -0.00151941 -0.00151621 " transform="matrix(1.00003,0,0,-1.00002,115.485894,115.185984)"/>
<path style="fill:none;stroke-width:0.3985;stroke-linecap:butt;stroke-linejoin:miter;stroke:rgb(0%,0%,0%);stroke-opacity:1;stroke-miterlimit:10;" d="M 79.656247 -0.00151621 L 79.656247 5.670245 L 73.984542 5.670245 L 73.984542 -0.00151621 L 79.656247 -0.00151621 " transform="matrix(1.00003,0,0,-1.00002,115.485894,115.185984)"/>
</g>
</svg>
