<?xml version="1.0" encoding="UTF-8"?>
<svg xmlns="http://www.w3.org/2000/svg" xmlns:xlink="http://www.w3.org/1999/xlink" width="51pt" height="44pt" viewBox="0 0 51 44" version="1.1">
<defs>
<clipPath id="clip1">
  <path d="M 1.097656 1.796875 L 49.664063 1.796875 L 49.664063 42.148438 L 1.097656 42.148438 Z M 1.097656 1.796875 "/>
</clipPath>
</defs>
<g id="surface1">
<path style="fill:none;stroke-width:0.3985;stroke-linecap:butt;stroke-linejoin:miter;stroke:rgb(0%,0%,0%);stroke-opacity:1;stroke-miterlimit:10;" d="M 0.00165625 20.175523 L 46.575875 20.175523 " transform="matrix(1,0,0,-1.00003,1.096,42.148784)"/>
<path style=" stroke:none;fill-rule:nonzero;fill:rgb(0%,0%,0%);fill-opacity:1;" d="M 49.664063 21.972656 L 46.476563 20.378906 L 47.671875 21.972656 L 46.476563 23.566406 "/>
<path style="fill:none;stroke-width:0.3985;stroke-linecap:butt;stroke-linejoin:miter;stroke:rgb(0%,0%,0%);stroke-opacity:1;stroke-miterlimit:10;" d="M 24.282906 0.00034696 L 24.282906 38.354665 " transform="matrix(1,0,0,-1.00003,1.096,42.148784)"/>
<path style=" stroke:none;fill-rule:nonzero;fill:rgb(0%,0%,0%);fill-opacity:1;" d="M 25.378906 1.796875 L 23.785156 4.988281 L 25.378906 3.792969 L 26.972656 4.988281 "/>
<g clip-path="url(#clip1)" clip-rule="nonzero">
<path style="fill:none;stroke-width:0.3985;stroke-linecap:butt;stroke-linejoin:miter;stroke:rgb(0%,0%,0%);stroke-opacity:1;stroke-miterlimit:10;" d="M 0.00165625 0.00034696 L 2.025094 1.679984 L 4.048531 3.363527 L 6.071969 5.043164 L 8.095406 6.726708 L 12.142281 10.085982 L 14.165719 11.769525 L 16.189156 13.449162 L 18.212594 15.132705 L 22.259469 18.49198 L 24.282906 20.175523 L 26.306344 21.85516 L 28.329781 23.538703 L 32.376656 26.897978 L 34.400094 28.581521 L 36.423531 30.261158 L 38.450875 31.944701 L 42.49775 35.303975 L 44.521187 36.987519 L 46.544625 38.667156 L 48.568062 40.350699 " transform="matrix(1,0,0,-1.00003,1.096,42.148784)"/>
</g>
</g>
</svg>
