<?xml version="1.0" encoding="UTF-8"?>
<svg xmlns="http://www.w3.org/2000/svg" xmlns:xlink="http://www.w3.org/1999/xlink" width="51pt" height="42pt" viewBox="0 0 51 42" version="1.1">
<defs>
<clipPath id="clip1">
  <path d="M 0.792969 0.796875 L 13 0.796875 L 13 19 L 0.792969 19 Z M 0.792969 0.796875 "/>
</clipPath>
<clipPath id="clip2">
  <path d="M 0.792969 0.796875 L 5 0.796875 L 5 4 L 0.792969 4 Z M 0.792969 0.796875 "/>
</clipPath>
<clipPath id="clip3">
  <path d="M 37 23 L 49.359375 23 L 49.359375 41.148438 L 37 41.148438 Z M 37 23 "/>
</clipPath>
<clipPath id="clip4">
  <path d="M 46 37 L 49.359375 37 L 49.359375 41.148438 L 46 41.148438 Z M 46 37 "/>
</clipPath>
</defs>
<g id="surface1">
<path style="fill:none;stroke-width:0.3985;stroke-linecap:butt;stroke-linejoin:miter;stroke:rgb(0%,0%,0%);stroke-opacity:1;stroke-miterlimit:10;" d="M 0.00096875 20.175523 L 46.575187 20.175523 " transform="matrix(1,0,0,-1.00003,0.792,41.148784)"/>
<path style=" stroke:none;fill-rule:nonzero;fill:rgb(0%,0%,0%);fill-opacity:1;" d="M 49.359375 20.972656 L 46.171875 19.378906 L 47.367188 20.972656 L 46.171875 22.566406 "/>
<path style="fill:none;stroke-width:0.3985;stroke-linecap:butt;stroke-linejoin:miter;stroke:rgb(0%,0%,0%);stroke-opacity:1;stroke-miterlimit:10;" d="M 24.282219 0.00034696 L 24.282219 38.354665 " transform="matrix(1,0,0,-1.00003,0.792,41.148784)"/>
<path style=" stroke:none;fill-rule:nonzero;fill:rgb(0%,0%,0%);fill-opacity:1;" d="M 25.074219 0.796875 L 23.480469 3.988281 L 25.074219 2.792969 L 26.667969 3.988281 "/>
<g clip-path="url(#clip1)" clip-rule="nonzero">
<path style="fill:none;stroke-width:0.3985;stroke-linecap:butt;stroke-linejoin:miter;stroke:rgb(0%,0%,0%);stroke-opacity:1;stroke-miterlimit:10;" d="M 0.149406 39.979616 L 0.254875 39.725718 L 0.504875 39.112455 L 0.758781 38.514817 L 1.012687 37.928897 L 1.266594 37.358601 L 1.516594 36.796118 L 1.7705 36.249259 L 2.024406 35.714119 L 2.278312 35.190697 L 2.528312 34.678994 L 2.782219 34.179009 L 3.036125 33.690742 L 3.290031 33.214194 L 3.540031 32.745458 L 3.793937 32.292347 L 4.047844 31.850954 L 4.30175 31.417373 L 4.55175 30.995511 L 4.805656 30.585367 L 5.059562 30.183035 L 5.313469 29.796328 L 5.563469 29.413527 L 5.817375 29.046351 L 6.071281 28.686986 " transform="matrix(1,0,0,-1.00003,0.792,41.148784)"/>
</g>
<g clip-path="url(#clip2)" clip-rule="nonzero">
<path style="fill:none;stroke-width:0.3985;stroke-linecap:round;stroke-linejoin:round;stroke:rgb(0%,0%,0%);stroke-opacity:1;stroke-miterlimit:10;" d="M -2.071088 2.390502 C -1.695533 0.956824 -0.84856 0.280433 -0.00118282 0.000104575 C -0.851907 -0.27883 -1.695796 -0.956762 -2.070278 -2.389842 " transform="matrix(-0.37572,-0.926738,-0.92671,0.375731,0.86684,0.98324)"/>
</g>
<path style="fill:none;stroke-width:0.3985;stroke-linecap:butt;stroke-linejoin:miter;stroke:rgb(0%,0%,0%);stroke-opacity:1;stroke-dasharray:0.3985,1.99255;stroke-miterlimit:10;" d="M 6.071281 28.686986 L 7.586906 26.730014 L 9.106437 25.101156 L 10.625969 23.765259 L 12.141594 22.694979 L 13.661125 21.862972 L 15.17675 21.237991 L 16.696281 20.788786 L 18.211906 20.488014 L 19.731437 20.308331 L 21.247062 20.214584 L 22.766594 20.179429 L 24.282219 20.175523 L 25.80175 20.167711 L 27.317375 20.136462 L 28.836906 20.042714 L 30.356437 19.859126 L 31.872062 19.558354 L 33.391594 19.109149 L 34.907219 18.484167 L 36.42675 17.652161 L 37.942375 16.581881 L 39.461906 15.249889 L 40.977531 13.617126 L 42.497062 11.66406 " transform="matrix(1,0,0,-1.00003,0.792,41.148784)"/>
<g clip-path="url(#clip3)" clip-rule="nonzero">
<path style="fill:none;stroke-width:0.3985;stroke-linecap:butt;stroke-linejoin:miter;stroke:rgb(0%,0%,0%);stroke-opacity:1;stroke-miterlimit:10;" d="M 42.497062 11.66406 L 42.750969 11.304695 L 43.000969 10.933613 L 43.254875 10.554718 L 43.508781 10.164105 L 43.762687 9.765679 L 44.012687 9.351629 L 44.266594 8.933673 L 44.5205 8.500092 L 44.774406 8.054793 L 45.024406 7.601681 L 45.278312 7.136852 L 45.532219 6.660303 L 45.786125 6.172037 L 46.036125 5.672052 L 46.290031 5.160348 L 46.543937 4.63302 L 46.797844 4.09788 L 47.047844 3.551022 L 47.30175 2.992445 L 47.555656 2.418243 L 47.809562 1.832323 L 48.059562 1.234685 L 48.313469 0.625328 L 48.418937 0.367523 " transform="matrix(1,0,0,-1.00003,0.792,41.148784)"/>
</g>
<g clip-path="url(#clip4)" clip-rule="nonzero">
<path style="fill:none;stroke-width:0.3985;stroke-linecap:round;stroke-linejoin:round;stroke:rgb(0%,0%,0%);stroke-opacity:1;stroke-miterlimit:10;" d="M -2.072544 2.392374 C -1.693385 0.957216 -0.851505 0.278658 0.00096163 0.000469339 C -0.849771 -0.278455 -1.693673 -0.95638 -2.073264 -2.391615 " transform="matrix(0.37573,0.926728,0.9267,-0.375741,49.28436,40.964129)"/>
</g>
</g>
</svg>
