<?xml version="1.0" encoding="UTF-8"?>
<svg xmlns="http://www.w3.org/2000/svg" xmlns:xlink="http://www.w3.org/1999/xlink" width="51pt" height="44pt" viewBox="0 0 51 44" version="1.1">
<defs>
<clipPath id="clip1">
  <path d="M 0.792969 0.796875 L 49.363281 0.796875 L 49.363281 41.148438 L 0.792969 41.148438 Z M 0.792969 0.796875 "/>
</clipPath>
</defs>
<g id="surface1">
<path style="fill:none;stroke-width:0.3985;stroke-linecap:butt;stroke-linejoin:miter;stroke:rgb(0%,0%,0%);stroke-opacity:1;stroke-miterlimit:10;" d="M 0.000801182 0.00034696 L 46.576132 0.00034696 " transform="matrix(1.00006,0,0,-1.00003,0.792168,41.148784)"/>
<path style=" stroke:none;fill-rule:nonzero;fill:rgb(0%,0%,0%);fill-opacity:1;" d="M 49.363281 41.148438 L 46.175781 39.554688 L 47.371094 41.148438 L 46.175781 42.742188 "/>
<path style="fill:none;stroke-width:0.3985;stroke-linecap:butt;stroke-linejoin:miter;stroke:rgb(0%,0%,0%);stroke-opacity:1;stroke-miterlimit:10;" d="M 24.2845 0.00034696 L 24.2845 38.354665 " transform="matrix(1.00006,0,0,-1.00003,0.792168,41.148784)"/>
<path style=" stroke:none;fill-rule:nonzero;fill:rgb(0%,0%,0%);fill-opacity:1;" d="M 25.078125 0.796875 L 23.484375 3.988281 L 25.078125 2.792969 L 26.671875 3.988281 "/>
<g clip-path="url(#clip1)" clip-rule="nonzero">
<path style="fill:none;stroke-width:0.3985;stroke-linecap:butt;stroke-linejoin:miter;stroke:rgb(0%,0%,0%);stroke-opacity:1;stroke-miterlimit:10;" d="M 0.000801182 40.350699 L 2.024117 33.90558 L 4.047433 28.019038 L 6.070749 22.694979 L 8.094066 17.933403 L 10.117382 13.730404 L 12.140698 10.085982 L 14.164014 7.004043 L 16.18733 4.484587 L 18.214552 2.523709 L 20.237868 1.121407 L 22.261184 0.281589 L 24.2845 0.00034696 L 26.307817 0.281589 L 28.331133 1.121407 L 30.354449 2.519803 L 32.377765 4.484587 L 34.401081 7.004043 L 36.424397 10.085982 L 38.447713 13.730404 L 40.471029 17.933403 L 42.494345 22.694979 L 44.521567 28.019038 L 46.544884 33.90558 L 48.5682 40.346793 " transform="matrix(1.00006,0,0,-1.00003,0.792168,41.148784)"/>
</g>
</g>
</svg>
